# Blender 3.3.1
# www.blender.org
mtllib cindaquil.mtl
o Low-poly-cindaquil
v -0.057023 -0.028340 0.000013
v -0.085772 -0.096228 0.000003
v -0.095012 -0.081784 -0.000000
v -0.111938 -0.088270 -0.000000
v -0.120879 -0.073346 -0.000000
v -0.138189 -0.080276 -0.000000
v -0.063676 0.081311 0.000000
v -0.106151 0.089299 0.000029
v -0.076012 -0.075380 0.024371
v -0.125202 -0.061839 0.025061
v -0.162912 -0.073109 0.114628
v -0.132035 0.106608 0.064986
v -0.080607 -0.093535 0.103939
v -0.110411 -0.065914 0.024871
v -0.090779 -0.071316 0.024586
v -0.114473 0.027992 0.148232
v -0.000000 0.102389 0.000000
v -0.000000 -0.061605 -0.000015
v -0.000000 -0.139049 0.101901
v -0.086691 0.052455 0.435739
v -0.000000 0.061876 0.466371
v -0.000000 0.093495 0.413896
v -0.000000 0.116371 0.375905
v -0.107030 0.078929 0.381134
v -0.068789 -0.033411 0.463245
v -0.077325 -0.091019 0.417751
v -0.000000 -0.108433 0.436632
v -0.000000 -0.035056 0.490009
v -0.048917 -0.150901 0.424044
v -0.000000 -0.150347 0.436179
v -0.037773 -0.208781 0.419515
v -0.034692 -0.226674 0.381658
v -0.000000 -0.236765 0.391527
v -0.000000 -0.221024 0.427270
v -0.054720 -0.124599 0.351882
v -0.102568 -0.075935 0.344140
v -0.092972 0.012134 0.402943
v -0.088149 -0.012490 0.409865
v -0.089466 -0.053091 0.392426
v -0.105368 0.028271 0.369665
v -0.119031 0.013758 0.322371
v -0.080549 0.013281 0.385014
v -0.071815 -0.027032 0.396392
v -0.105113 0.008756 0.184229
v -0.117369 -0.088968 0.182542
v -0.101530 -0.085814 0.230264
v -0.083427 -0.038676 0.268690
v -0.059875 0.080765 0.296638
v -0.000000 -0.093974 0.241636
v -0.016224 -0.093163 0.215998
v -0.045349 -0.102543 0.136814
v -0.080732 -0.081001 0.142525
v -0.066817 -0.059562 0.232869
v -0.062678 -0.125072 0.176637
v -0.051250 -0.122361 0.212681
v -0.116302 0.186760 -0.000000
v -0.083796 0.123204 0.066036
v -0.101348 0.158818 0.084707
v -0.130263 0.218596 0.161761
v -0.095805 0.151164 0.229261
v -0.116461 0.195003 0.331925
v -0.081190 0.169678 0.084707
v -0.096152 0.197617 0.000000
v -0.110113 0.229452 0.161761
v -0.075794 0.162308 0.229110
v -0.096393 0.205971 0.331389
v -0.000000 0.147530 0.084707
v -0.000000 0.171387 0.000000
v -0.000000 0.199414 0.161761
v -0.000000 0.141517 0.229184
v -0.000000 0.164194 0.290165
v -0.000000 0.101219 0.290922
v 0.095012 -0.081784 -0.000000
v 0.085772 -0.096228 0.000003
v 0.057023 -0.028340 0.000013
v 0.111938 -0.088270 -0.000000
v 0.120879 -0.073346 -0.000000
v 0.138189 -0.080276 -0.000000
v 0.063676 0.081311 0.000000
v 0.106151 0.089299 0.000029
v 0.076012 -0.075380 0.024371
v 0.125202 -0.061839 0.025061
v 0.132035 0.106608 0.064986
v 0.162912 -0.073109 0.114628
v 0.110411 -0.065914 0.024871
v 0.090779 -0.071316 0.024586
v 0.080607 -0.093535 0.103939
v 0.114473 0.027992 0.148232
v 0.086691 0.052455 0.435739
v 0.107030 0.078929 0.381134
v 0.068789 -0.033411 0.463245
v 0.077325 -0.091019 0.417751
v 0.048917 -0.150901 0.424044
v 0.037773 -0.208781 0.419515
v 0.034692 -0.226674 0.381658
v 0.054720 -0.124599 0.351882
v 0.102568 -0.075935 0.344140
v 0.088148 -0.012490 0.409865
v 0.092972 0.012134 0.402943
v 0.089466 -0.053091 0.392426
v 0.105368 0.028271 0.369665
v 0.119031 0.013758 0.322371
v 0.071815 -0.027032 0.396392
v 0.080549 0.013281 0.385014
v 0.105113 0.008756 0.184229
v 0.083427 -0.038676 0.268690
v 0.101530 -0.085814 0.230264
v 0.117369 -0.088968 0.182542
v 0.059875 0.080765 0.296638
v 0.045349 -0.102543 0.136814
v 0.016224 -0.093163 0.215998
v 0.080732 -0.081001 0.142525
v 0.066817 -0.059562 0.232869
v 0.051250 -0.122361 0.212681
v 0.062678 -0.125072 0.176637
v 0.116302 0.186760 -0.000000
v 0.101348 0.158818 0.084707
v 0.083796 0.123204 0.066036
v 0.130263 0.218596 0.161761
v 0.095805 0.151164 0.229261
v 0.116461 0.195003 0.331925
v 0.096152 0.197617 0.000000
v 0.081190 0.169678 0.084707
v 0.110112 0.229452 0.161761
v 0.075794 0.162308 0.229110
v 0.096393 0.205971 0.331389
vn 0.0004 -0.0000 -1.0000
vn -0.0001 0.0003 -1.0000
vn 0.0001 0.0001 -1.0000
vn -0.0003 0.0007 -1.0000
vn 0.0002 -0.0001 -1.0000
vn -0.0006 0.0003 -1.0000
vn 0.9203 -0.3897 -0.0352
vn -0.9208 0.1739 0.3492
vn -0.9227 0.0531 -0.3818
vn 0.1815 0.9658 -0.1850
vn -0.2624 -0.9374 -0.2290
vn -0.2613 -0.9379 -0.2280
vn -0.2614 -0.9379 -0.2281
vn -0.8601 0.2677 0.4343
vn 0.9201 -0.3900 -0.0358
vn 0.0399 -0.3323 0.9423
vn -0.0000 -0.0001 -1.0000
vn -0.0004 0.0001 -1.0000
vn -0.4215 -0.7220 -0.5486
vn -0.4215 -0.7221 -0.5486
vn -0.2655 0.8258 0.4976
vn -0.2657 0.8259 0.4973
vn -0.2644 0.8255 0.4987
vn -0.3134 -0.5595 0.7673
vn -0.3123 -0.5588 0.7682
vn -0.2406 -0.0122 0.9705
vn -0.2394 -0.0105 0.9709
vn -0.3558 -0.8558 0.3755
vn -0.3547 -0.8557 0.3768
vn -0.2377 -0.1215 0.9637
vn -0.2371 -0.1211 0.9639
vn -0.9818 -0.1898 0.0098
vn -0.7174 -0.6887 0.1049
vn -0.8966 -0.4344 -0.0862
vn -0.9473 -0.1000 0.3044
vn -0.7683 -0.3225 -0.5530
vn -0.7539 -0.3104 -0.5790
vn -0.3658 0.3773 -0.8508
vn -0.4316 0.1572 0.8883
vn -0.4484 0.1585 0.8797
vn -0.3506 -0.8873 -0.2997
vn -0.9452 0.1133 0.3062
vn -0.9452 0.1133 0.3063
vn -0.9014 -0.2510 -0.3527
vn -0.6403 0.2925 -0.7103
vn -0.7560 0.5096 -0.4108
vn -0.8173 -0.3033 -0.4899
vn -0.0144 -0.7240 -0.6897
vn -0.1897 -0.7244 0.6628
vn -0.4740 -0.8370 0.2735
vn -0.4681 -0.8410 0.2713
vn -0.9448 0.1145 0.3069
vn -0.9448 0.1141 0.3070
vn -0.5881 -0.6554 -0.4740
vn -0.5895 -0.6548 -0.4729
vn 0.3690 -0.9216 0.1201
vn -0.7627 -0.4570 0.4576
vn -0.7889 -0.5046 0.3507
vn -0.1852 -0.7088 0.6806
vn 0.3392 -0.8852 0.3185
vn -0.1953 -0.7389 0.6448
vn -0.9503 -0.2988 0.0874
vn -0.9496 -0.2989 0.0940
vn -0.4686 -0.8411 0.2699
vn -0.4686 -0.8403 0.2727
vn -0.5194 -0.8239 0.2266
vn -0.5195 -0.8238 0.2269
vn -0.4680 -0.8410 0.2715
vn -0.4681 -0.8409 0.2716
vn 0.4552 -0.6611 0.5965
vn 0.1348 -0.2728 0.9526
vn 0.1368 -0.2723 0.9524
vn 0.6415 -0.7529 -0.1468
vn -0.4912 -0.6490 -0.5809
vn -0.4902 -0.6518 -0.5786
vn -0.7438 0.1047 -0.6602
vn -0.8947 -0.4465 0.0107
vn -0.8947 -0.4465 0.0106
vn -0.8955 -0.4449 0.0127
vn -0.4442 0.8245 0.3504
vn -0.3594 0.6672 -0.6525
vn -0.3199 0.5845 0.7457
vn -0.3157 0.5859 0.7464
vn -0.4427 0.7890 -0.4260
vn -0.4426 0.7890 -0.4260
vn -0.0000 -0.0000 -1.0000
vn 0.2540 0.9310 0.2622
vn 0.2207 0.8090 -0.5448
vn 0.2031 0.7429 0.6379
vn 0.2027 0.7432 0.6376
vn 0.2491 0.9078 -0.3376
vn 0.2493 0.9078 -0.3373
vn 0.1482 -0.2241 0.9632
vn 0.1664 -0.2184 0.9616
vn -0.2556 0.7792 -0.5722
vn -0.3225 0.9244 0.2036
vn -0.3328 0.9283 -0.1656
vn -0.3329 0.9283 -0.1655
vn 0.3972 0.0110 0.9177
vn -0.3462 0.2223 0.9114
vn -0.3492 0.2190 0.9111
vn -0.0004 -0.0000 -1.0000
vn 0.0001 0.0003 -1.0000
vn -0.0001 0.0001 -1.0000
vn 0.0003 0.0007 -1.0000
vn -0.0002 -0.0001 -1.0000
vn 0.0006 0.0003 -1.0000
vn -0.9203 -0.3897 -0.0352
vn 0.9208 0.1739 0.3492
vn 0.9227 0.0531 -0.3818
vn -0.1815 0.9658 -0.1850
vn 0.2613 -0.9379 -0.2280
vn 0.2614 -0.9379 -0.2281
vn 0.2624 -0.9374 -0.2290
vn 0.8601 0.2677 0.4343
vn -0.9201 -0.3900 -0.0358
vn -0.0399 -0.3323 0.9423
vn 0.0004 0.0001 -1.0000
vn 0.4215 -0.7221 -0.5486
vn 0.4215 -0.7220 -0.5486
vn 0.2655 0.8258 0.4976
vn 0.2657 0.8259 0.4973
vn 0.2644 0.8255 0.4987
vn 0.3123 -0.5588 0.7682
vn 0.3134 -0.5595 0.7673
vn 0.2394 -0.0105 0.9709
vn 0.2406 -0.0122 0.9705
vn 0.3547 -0.8557 0.3768
vn 0.3558 -0.8558 0.3755
vn 0.2371 -0.1211 0.9639
vn 0.2377 -0.1215 0.9637
vn 0.9818 -0.1898 0.0098
vn 0.8966 -0.4344 -0.0862
vn 0.7174 -0.6887 0.1049
vn 0.9473 -0.1000 0.3044
vn 0.7539 -0.3104 -0.5790
vn 0.7683 -0.3225 -0.5530
vn 0.3658 0.3773 -0.8508
vn 0.4484 0.1585 0.8797
vn 0.4316 0.1572 0.8883
vn 0.3506 -0.8873 -0.2997
vn 0.9452 0.1133 0.3063
vn 0.9452 0.1133 0.3062
vn 0.9014 -0.2510 -0.3527
vn 0.7560 0.5096 -0.4108
vn 0.6403 0.2925 -0.7103
vn 0.8173 -0.3033 -0.4899
vn 0.0144 -0.7240 -0.6897
vn 0.1897 -0.7244 0.6628
vn 0.4681 -0.8410 0.2713
vn 0.4740 -0.8370 0.2735
vn 0.9448 0.1141 0.3070
vn 0.9448 0.1145 0.3069
vn 0.5895 -0.6548 -0.4729
vn 0.5881 -0.6554 -0.4740
vn -0.3690 -0.9216 0.1201
vn 0.7627 -0.4570 0.4576
vn 0.1852 -0.7088 0.6806
vn 0.7889 -0.5046 0.3507
vn -0.3392 -0.8852 0.3185
vn 0.1953 -0.7389 0.6448
vn 0.9496 -0.2989 0.0940
vn 0.9503 -0.2988 0.0874
vn 0.4686 -0.8403 0.2727
vn 0.4686 -0.8411 0.2699
vn 0.5195 -0.8238 0.2269
vn 0.5194 -0.8239 0.2266
vn 0.4681 -0.8409 0.2716
vn 0.4680 -0.8410 0.2715
vn -0.4552 -0.6611 0.5965
vn -0.1368 -0.2723 0.9524
vn -0.1348 -0.2728 0.9526
vn -0.6415 -0.7529 -0.1468
vn 0.4902 -0.6518 -0.5786
vn 0.4912 -0.6490 -0.5809
vn 0.7438 0.1047 -0.6602
vn 0.8947 -0.4465 0.0107
vn 0.8955 -0.4449 0.0127
vn 0.8947 -0.4465 0.0106
vn 0.4442 0.8245 0.3504
vn 0.3594 0.6672 -0.6525
vn 0.3157 0.5859 0.7464
vn 0.3199 0.5845 0.7457
vn 0.4426 0.7890 -0.4260
vn 0.4427 0.7890 -0.4260
vn -0.2540 0.9310 0.2622
vn -0.2207 0.8090 -0.5448
vn -0.2027 0.7432 0.6376
vn -0.2031 0.7429 0.6379
vn -0.2493 0.9078 -0.3373
vn -0.2491 0.9078 -0.3376
vn -0.1664 -0.2184 0.9616
vn -0.1482 -0.2241 0.9632
vn 0.2556 0.7792 -0.5722
vn 0.3225 0.9244 0.2036
vn 0.3329 0.9283 -0.1655
vn 0.3328 0.9283 -0.1656
vn -0.3972 0.0110 0.9177
vn 0.3492 0.2190 0.9111
vn 0.3462 0.2223 0.9114
s 0
f 1//1 2//1 3//1
f 1//2 3//2 4//2
f 1//3 4//3 5//3
f 1//4 5//4 6//4
f 7//5 1//5 6//5
f 8//6 7//6 6//6
f 1//7 9//7 2//7
f 6//8 10//8 8//8
f 10//9 11//9 12//9
f 12//9 8//9 10//9
f 8//10 12//10 7//10
f 9//11 13//11 11//11
f 11//12 10//12 14//12
f 11//13 14//13 15//13
f 9//13 11//13 15//13
f 11//14 16//14 12//14
f 1//15 13//15 9//15
f 11//16 13//16 16//16
f 7//17 17//17 1//17
f 1//18 17//18 18//18
f 18//19 19//19 13//19
f 13//20 1//20 18//20
f 20//21 21//21 22//21
f 20//22 22//22 23//22
f 24//23 20//23 23//23
f 25//24 26//24 27//24
f 27//25 28//25 25//25
f 26//26 29//26 30//26
f 30//27 27//27 26//27
f 31//28 32//28 33//28
f 33//29 34//29 31//29
f 34//30 30//30 29//30
f 29//31 31//31 34//31
f 29//32 35//32 32//32
f 32//32 31//32 29//32
f 26//33 36//33 35//33
f 35//34 29//34 26//34
f 20//35 37//35 38//35
f 38//35 25//35 20//35
f 37//35 20//35 24//35
f 25//35 38//35 26//35
f 39//35 36//35 26//35
f 26//35 38//35 39//35
f 40//35 37//35 24//35
f 24//35 41//35 40//35
f 36//35 39//35 40//35
f 40//35 41//35 36//35
f 37//36 42//36 43//36
f 43//37 38//37 37//37
f 38//38 43//38 39//38
f 39//39 43//39 42//39
f 42//40 40//40 39//40
f 40//41 42//41 37//41
f 44//42 45//42 46//42
f 46//43 47//43 44//43
f 41//44 47//44 36//44
f 48//45 47//45 41//45
f 41//46 24//46 48//46
f 35//47 49//47 32//47
f 32//48 49//48 33//48
f 4//49 15//49 14//49
f 49//50 50//50 51//50
f 51//51 19//51 49//51
f 44//52 47//52 48//52
f 16//52 44//52 48//52
f 16//53 48//53 12//53
f 47//54 49//54 35//54
f 35//55 36//55 47//55
f 5//56 14//56 6//56
f 4//57 14//57 5//57
f 15//58 3//58 2//58
f 2//59 9//59 15//59
f 15//60 4//60 3//60
f 6//61 14//61 10//61
f 52//62 44//62 16//62
f 16//63 13//63 52//63
f 53//64 50//64 49//64
f 49//65 47//65 53//65
f 45//66 54//66 55//66
f 55//67 46//67 45//67
f 13//68 19//68 51//68
f 51//69 52//69 13//69
f 47//70 46//70 53//70
f 53//71 46//71 55//71
f 55//72 50//72 53//72
f 50//73 55//73 54//73
f 54//73 51//73 50//73
f 51//74 54//74 45//74
f 45//75 52//75 51//75
f 52//76 45//76 44//76
f 56//77 7//77 57//77
f 57//77 58//77 56//77
f 58//77 57//77 59//77
f 59//78 57//78 48//78
f 48//79 60//79 59//79
f 60//78 48//78 61//78
f 58//80 62//80 63//80
f 63//80 56//80 58//80
f 59//81 64//81 62//81
f 62//81 58//81 59//81
f 60//82 65//82 64//82
f 64//83 59//83 60//83
f 61//84 66//84 65//84
f 65//85 60//85 61//85
f 56//86 63//86 7//86
f 62//87 67//87 68//87
f 68//87 63//87 62//87
f 64//88 69//88 67//88
f 67//88 62//88 64//88
f 65//89 70//89 69//89
f 69//90 64//90 65//90
f 66//91 71//91 70//91
f 70//92 65//92 66//92
f 66//93 61//93 48//93
f 48//94 72//94 66//94
f 57//95 7//95 12//95
f 57//96 12//96 48//96
f 48//97 24//97 23//97
f 23//98 72//98 48//98
f 66//99 72//99 71//99
f 7//86 63//86 68//86
f 68//86 17//86 7//86
f 28//100 21//100 20//100
f 20//101 25//101 28//101
f 73//102 74//102 75//102
f 76//103 73//103 75//103
f 77//104 76//104 75//104
f 78//105 77//105 75//105
f 79//106 78//106 75//106
f 80//107 78//107 79//107
f 75//108 74//108 81//108
f 78//109 80//109 82//109
f 82//110 80//110 83//110
f 83//110 84//110 82//110
f 80//111 79//111 83//111
f 85//112 82//112 84//112
f 86//113 85//113 84//113
f 81//113 86//113 84//113
f 81//114 84//114 87//114
f 84//115 83//115 88//115
f 75//116 81//116 87//116
f 84//117 88//117 87//117
f 79//17 75//17 17//17
f 75//118 18//118 17//118
f 18//119 75//119 87//119
f 87//120 19//120 18//120
f 22//121 21//121 89//121
f 23//122 22//122 89//122
f 90//123 23//123 89//123
f 91//124 28//124 27//124
f 27//125 92//125 91//125
f 92//126 27//126 30//126
f 30//127 93//127 92//127
f 94//128 34//128 33//128
f 33//129 95//129 94//129
f 34//130 94//130 93//130
f 93//131 30//131 34//131
f 93//132 94//132 95//132
f 95//132 96//132 93//132
f 92//133 93//133 96//133
f 96//134 97//134 92//134
f 89//135 91//135 98//135
f 98//135 99//135 89//135
f 99//135 90//135 89//135
f 91//135 92//135 98//135
f 100//135 98//135 92//135
f 92//135 97//135 100//135
f 101//135 102//135 90//135
f 90//135 99//135 101//135
f 97//135 102//135 101//135
f 101//135 100//135 97//135
f 99//136 98//136 103//136
f 103//137 104//137 99//137
f 98//138 100//138 103//138
f 100//139 101//139 104//139
f 104//140 103//140 100//140
f 101//141 99//141 104//141
f 105//142 106//142 107//142
f 107//143 108//143 105//143
f 102//144 97//144 106//144
f 109//145 90//145 102//145
f 102//146 106//146 109//146
f 96//147 95//147 49//147
f 95//148 33//148 49//148
f 76//149 85//149 86//149
f 49//150 19//150 110//150
f 110//151 111//151 49//151
f 88//152 83//152 109//152
f 109//153 106//153 105//153
f 88//153 109//153 105//153
f 106//154 97//154 96//154
f 96//155 49//155 106//155
f 77//156 78//156 85//156
f 76//157 77//157 85//157
f 86//158 81//158 74//158
f 74//159 73//159 86//159
f 86//160 73//160 76//160
f 78//161 82//161 85//161
f 112//162 87//162 88//162
f 88//163 105//163 112//163
f 113//164 106//164 49//164
f 49//165 111//165 113//165
f 108//166 107//166 114//166
f 114//167 115//167 108//167
f 87//168 112//168 110//168
f 110//169 19//169 87//169
f 106//170 113//170 107//170
f 113//171 111//171 114//171
f 114//172 107//172 113//172
f 111//173 110//173 115//173
f 115//173 114//173 111//173
f 110//174 112//174 108//174
f 108//175 115//175 110//175
f 112//176 105//176 108//176
f 116//177 117//177 118//177
f 118//177 79//177 116//177
f 117//177 119//177 118//177
f 119//178 120//178 109//178
f 109//179 118//179 119//179
f 120//179 121//179 109//179
f 117//180 116//180 122//180
f 122//180 123//180 117//180
f 119//181 117//181 123//181
f 123//181 124//181 119//181
f 120//182 119//182 124//182
f 124//183 125//183 120//183
f 121//184 120//184 125//184
f 125//185 126//185 121//185
f 116//86 79//86 122//86
f 123//186 122//186 68//186
f 68//186 67//186 123//186
f 124//187 123//187 67//187
f 67//187 69//187 124//187
f 125//188 124//188 69//188
f 69//189 70//189 125//189
f 126//190 125//190 70//190
f 70//191 71//191 126//191
f 126//192 72//192 109//192
f 109//193 121//193 126//193
f 118//194 83//194 79//194
f 118//195 109//195 83//195
f 109//196 72//196 23//196
f 23//197 90//197 109//197
f 126//198 71//198 72//198
f 79//86 17//86 68//86
f 68//86 122//86 79//86
f 28//199 91//199 89//199
f 89//200 21//200 28//200
